{"title":"Fifty.Shades.of.Grey.2015.SWESUB.1080p.BluRay.x264-Svennen","uid":11900831,"size":4153395992,"categoryP":"video","categoryS":"hd___movies","magnet":"?xt=urn:btih:4fe570774986aad6612d0d780307c6feedc73281&amp;dn=Fifty.Shades.of.Grey.2015.SWESUB.1080p.BluRay.x264-Svennen&amp;tr=udp%3A%2F%2Ftracker.openbittorrent.com%3A80&amp;tr=udp%3A%2F%2Fopen.demonii.com%3A1337&amp;tr=udp%3A%2F%2Ftracker.coppersurfer.tk%3A6969&amp;tr=udp%3A%2F%2Fexodus.desync.com%3A6969","seeders":51,"leechers":8,"uploader":"Grinder101","files":2,"time":1431308182,"description":"Literature student Anastasia Steele's life changes forever when she meets handsome, yet tormented, billionaire Christian Grey.\n\nGeneral\nFormat                                   : Matroska\nFormat version                           : Version 2\nFile size                                : 3.53 GiB\nDuration                                 : 2h 8mn\nOverall bit rate mode                    : Variable\nOverall bit rate                         : 3 929 Kbps\nMovie name                               : T1_Video - \nEncoded date                             : UTC 2015-05-10 23:13:01\nWriting application                      : mkvmerge v5.8.0 ('No Sleep / Pillow') built on Sep  2 2012 15:37:04\nWriting library                          : libebml v1.2.3 + libmatroska v1.3.0\n\nVideo\nID                                       : 1\nFormat                                   : AVC\nFormat/Info                              : Advanced Video Codec\nFormat profile                           : High@L4\nFormat settings, CABAC                   : Yes\nFormat settings, ReFrames                : 4 frames\nMuxing mode                              : Header stripping\nCodec ID                                 : V_MPEG4/ISO/AVC\nDuration                                 : 2h 8mn\nBit rate mode                            : Variable\nBit rate                                 : 3 211 Kbps\nMaximum bit rate                         : 25.0 Mbps\nWidth                                    : 1 920 pixels\nHeight                                   : 800 pixels\nDisplay aspect ratio                     : 2.40:1\nFrame rate mode                          : Constant\nFrame rate                               : 23.976 fps\nColor space                              : YUV\nChroma subsampling                       : 4:2:0\nBit depth                                : 8 bits\nScan type                                : Progressive\nBits/(Pixel*Frame)                       : 0.087\nStream size                              : 2.88 GiB (82%)\nTitle                                    : ETRG\nWriting library                          : x264 core 142 r2479 dd79a61\nEncoding settings                        : cabac=1 / ref=4 / deblock=1:-3:-3 / analyse=0x3:0x133 / me=tesa / subme=11 / psy=1 / psy_rd=2.00:0.70 / mixed_ref=1 / me_range=24 / chroma_me=1 / trellis=2 / 8x8dct=1 / cqm=0 / deadzone=21,11 / fast_pskip=0 / chroma_qp_offset=-4 / threads=12 / lookahead_threads=1 / sliced_threads=0 / nr=0 / decimate=1 / interlaced=0 / bluray_compat=0 / constrained_intra=0 / bframes=4 / b_pyramid=2 / b_adapt=2 / b_bias=0 / direct=3 / weightb=1 / open_gop=0 / weightp=2 / keyint=240 / keyint_min=24 / scenecut=40 / intra_refresh=0 / rc_lookahead=60 / rc=crf / mbtree=1 / crf=22.0 / qcomp=0.60 / qpmin=0 / qpmax=69 / qpstep=4 / vbv_maxrate=25000 / vbv_bufsize=31000 / crf_max=0.0 / nal_hrd=vbr / filler=0 / ip_ratio=1.40 / aq=1:1.20 / zones=175000,184800,b=1,crf=26\nDefault                                  : Yes\nForced                                   : No\n\nAudio\nID                                       : 2\nFormat                                   : AC-3\nFormat/Info                              : Audio Coding 3\nMode extension                           : CM (complete main)\nFormat settings, Endianness              : Big\nMuxing mode                              : Header stripping\nCodec ID                                 : A_AC3\nDuration                                 : 2h 8mn\nBit rate mode                            : Constant\nBit rate                                 : 640 Kbps\nChannel(s)                               : 6 channels\nChannel positions                        : Front: L C R, Side: L R, LFE\nSampling rate                            : 48.0 KHz\nBit depth                                : 16 bits\nCompression mode                         : Lossy\nStream size                              : 588 MiB (16%)\nTitle                                    : ETRG\nLanguage                                 : English\nDefault                                  : Yes\nForced                                   : No\n\nText\nID                                       : 3\nFormat                                   : UTF-8\nCodec ID                                 : S_TEXT/UTF8\nCodec ID/Info                            : UTF-8 Plain Text\nDefault                                  : Yes\nForced                                   : No\n\nYou can watch the movie with the Swedish text by playing up the movie on your computer or something else who fit you. Or you can watch the movie with only english speaking language. Then you open vlc and disable the subtitles","torrent":{"xt":"urn:btih:4fe570774986aad6612d0d780307c6feedc73281","amp;dn":"Fifty.Shades.of.Grey.2015.SWESUB.1080p.BluRay.x264-Svennen","amp;tr":["udp%3A%2F%2Ftracker.openbittorrent.com%3A80","udp%3A%2F%2Fopen.demonii.com%3A1337","udp%3A%2F%2Ftracker.coppersurfer.tk%3A6969","udp%3A%2F%2Fexodus.desync.com%3A6969"],"infoHash":"4fe570774986aad6612d0d780307c6feedc73281","infoHashBuffer":{"type":"Buffer","data":[79,229,112,119,73,134,170,214,97,45,13,120,3,7,198,254,237,199,50,129]},"announce":[],"urlList":[]}}